<svg width="61" height="86" viewBox="0 0 61 86" fill="none" xmlns="http://www.w3.org/2000/svg">
<g clip-path="url(#clip0_2_2)">
<path d="M15.3288 47.1105C23.6373 44.3362 31.9051 45.4228 37.671 46.8562C41.8544 47.9023 46.0784 49.168 49.8487 51.3297C55.184 54.3698 59.5594 59.531 59.6001 65.9292C59.527 70.5384 57.6339 74.9347 54.3287 78.1706C51.0145 81.3764 46.7983 83.5068 42.2384 84.2797C34.8084 85.6379 26.9538 83.7364 20.6002 79.656C14.2466 75.5755 9.35929 69.5068 6.17669 62.6983C2.27844 54.3756 0.666778 44.9604 1.0566 35.8227C1.5337 24.3963 3.20937 9.65802 11.5819 1.00003" stroke="#2D2D2D" stroke-linecap="round" stroke-linejoin="round"/>
<path d="M10.373 6.45032C10.0705 4.491 10.9956 2.89002 11.5774 1.00006C10.0402 1.76732 8.55009 2.62421 7.11478 3.56624" stroke="#2D2D2D" stroke-linecap="round" stroke-linejoin="round"/>
<g clip-path="url(#clip1_2_2)">
<path d="M17.054 59.608C19.504 59.608 21.198 60.994 21.198 63.346C21.198 65.628 19.588 67.168 16.998 67.168C15.472 67.168 14.282 66.622 13.708 65.838L13.694 67H12.364V57.032H13.862V60.742C14.478 60.042 15.626 59.608 17.054 59.608ZM16.802 65.936C18.58 65.936 19.7 64.984 19.7 63.346C19.7 61.61 18.566 60.826 16.802 60.826C15.066 60.826 13.792 61.68 13.792 63.304C13.792 64.928 15.052 65.936 16.802 65.936ZM31.2627 65.922H31.7947V67H30.7727C29.8067 67 29.3167 66.622 29.2327 65.866C28.6587 66.636 27.4967 67.182 25.7187 67.182C23.6327 67.182 22.5547 66.51 22.5547 65.054C22.5547 63.724 23.3667 63.066 25.6627 62.842L28.0707 62.604C28.8267 62.534 29.0227 62.38 29.0227 62.044V61.946C29.0227 61.232 28.6307 60.728 26.7547 60.728C25.1587 60.728 24.5707 61.036 24.4167 61.96L22.9467 61.946C23.1147 60.35 24.2767 59.566 26.8247 59.566C29.3727 59.566 30.5207 60.364 30.5207 62.044V65.306C30.5207 65.698 30.6327 65.922 31.2627 65.922ZM26.0407 66.09C27.7767 66.09 28.9387 65.334 29.0227 64.424V63.416C28.8827 63.458 28.7427 63.5 28.5747 63.514L25.9847 63.794C24.5287 63.948 24.0247 64.242 24.0247 64.984C24.0247 65.796 24.6827 66.09 26.0407 66.09ZM37.0933 67.196C34.4333 67.196 32.7393 65.866 32.7393 63.444C32.7393 61.008 34.4193 59.58 37.1493 59.58C39.4313 59.58 40.8453 60.518 41.1393 62.198H39.7113C39.4593 61.246 38.6333 60.77 37.1773 60.77C35.2313 60.77 34.2373 61.722 34.2373 63.388C34.2373 65.054 35.3013 66.02 37.1633 66.02C38.6053 66.02 39.4313 65.432 39.6973 64.438H41.1253C40.8033 66.16 39.4453 67.196 37.0933 67.196ZM50.764 59.776L46.998 62.506L51.044 67H49.266L47.082 64.55L45.976 63.248L44.282 64.396V67H42.784V57.032H44.282V61.176L44.212 63.066L48.79 59.776H50.764Z" fill="black"/>
</g>
</g>
<defs>
<clipPath id="clip0_2_2">
<rect width="61" height="86" fill="white"/>
</clipPath>
<clipPath id="clip1_2_2">
<rect width="40" height="11" fill="white" transform="translate(12 57)"/>
</clipPath>
</defs>
</svg>
