<svg width="96" height="98" viewBox="0 0 96 98" fill="none" xmlns="http://www.w3.org/2000/svg">
<path d="M61.0843 42.1387C52.4355 44.6573 43.8292 43.6709 37.8272 42.3696C33.4725 41.4199 29.0754 40.2708 25.1507 38.3084C19.5969 35.5484 15.0424 30.8627 15 25.0542C15.0761 20.8697 17.0467 16.8786 20.4872 13.9409C23.9372 11.0305 28.326 9.09643 33.0727 8.3947C40.8069 7.16164 48.9833 8.88792 55.5971 12.5924C62.2108 16.2969 67.2983 21.8063 70.6112 27.9873C74.6691 35.5431 76.3468 44.0906 75.941 52.3863C75.4444 62.7598 73.7 76.1398 64.9847 84" stroke="#EAE8E4" stroke-linecap="round" stroke-linejoin="round"/>
<g clip-path="url(#clip0_8_2)">
<path d="M30.5276 30.2526C30.436 30.1508 30.327 30.0622 30.2044 29.9901C30.0815 29.9111 29.9519 29.8405 29.8167 29.779L29.4095 29.585C29.2759 29.5229 29.1503 29.4483 29.0347 29.3625C28.7586 29.3031 28.4901 29.219 28.2333 29.1114C27.9813 29.003 27.7227 28.906 27.4578 28.8147C27.4578 28.8147 27.4578 28.849 27.3931 28.849H27.2316C27.1721 28.7895 27.0965 28.7443 27.0118 28.7177C26.9247 28.6786 26.8339 28.6461 26.7404 28.6207L26.456 28.5409C26.3688 28.5152 26.2861 28.4787 26.2105 28.4324C26.1468 28.4271 26.0839 28.4156 26.023 28.3982C25.9595 28.3835 25.8927 28.3835 25.8292 28.3982L25.2346 28.0787C25.0405 27.9692 24.8529 27.8511 24.6723 27.7249C24.4887 27.6037 24.3178 27.4681 24.1618 27.3198C24.0005 27.1692 23.8595 27.0027 23.7417 26.8234C23.7387 26.75 23.7257 26.6772 23.7029 26.6066C23.6937 26.5307 23.6937 26.4542 23.7029 26.3784V26.1958C23.749 26.1697 23.785 26.1319 23.8063 26.0874C23.8306 26.0428 23.8522 25.997 23.8709 25.9504C23.8709 25.8991 23.9033 25.8534 23.9162 25.8078C23.9279 25.7597 23.9523 25.7148 23.9873 25.6765C24.0154 25.636 24.0589 25.6057 24.1101 25.591C24.1593 25.5705 24.2033 25.5413 24.2393 25.5054C24.277 25.4709 24.3018 25.4271 24.3104 25.3798C24.3202 25.356 24.3366 25.3347 24.358 25.3177C24.3794 25.3008 24.4053 25.2888 24.4332 25.2828C24.5322 25.2557 24.6259 25.2153 24.7111 25.163C24.7914 25.105 24.8669 25.042 24.9373 24.9747C25.0433 24.9402 25.1451 24.8962 25.241 24.8435L25.5125 24.678L25.8033 24.5183C25.9083 24.467 26.0217 24.4304 26.1394 24.4098C26.1767 24.3701 26.226 24.3404 26.2816 24.3243C26.3393 24.3123 26.39 24.2818 26.4237 24.2387C26.5157 24.2347 26.6067 24.2213 26.6952 24.1987L26.9795 24.1303L27.251 24.0675C27.3445 24.0499 27.4397 24.0403 27.5353 24.039H27.6969C27.7264 24.0988 27.7791 24.1474 27.8455 24.1759C27.9156 24.2004 27.9899 24.2139 28.0653 24.2159C28.138 24.2151 28.2101 24.2035 28.2785 24.1816C28.3466 24.1571 28.4066 24.1178 28.453 24.0675C28.5801 24.0732 28.7073 24.0732 28.8343 24.0675H29.4741C29.564 24.0769 29.6502 24.1042 29.7262 24.1474C29.7239 24.1307 29.7261 24.1137 29.7325 24.0979C29.739 24.082 29.7495 24.0677 29.7633 24.0561C29.7771 24.0444 29.7938 24.0358 29.812 24.0309C29.8303 24.0259 29.8496 24.0248 29.8684 24.0276H29.9136V23.9762C29.9165 23.942 29.9165 23.9077 29.9136 23.8735C29.9071 23.8395 29.8863 23.809 29.8555 23.7879C29.9254 23.7632 29.9925 23.7327 30.0558 23.6966C30.1159 23.6546 30.1589 23.5966 30.1786 23.5312C30.1646 23.5173 30.1539 23.501 30.1472 23.4833C30.1405 23.4657 30.138 23.447 30.1398 23.4285V23.4056L29.9395 23.3257C29.9149 23.3098 29.8946 23.2893 29.8801 23.2656C29.8656 23.2419 29.8572 23.2157 29.8555 23.1888C29.6831 23.166 29.5086 23.1375 29.332 23.1032C29.1595 23.0736 28.9842 23.0583 28.8085 23.0576C28.7678 23.0521 28.7264 23.0521 28.6857 23.0576C28.645 23.0631 28.6036 23.0631 28.5629 23.0576C28.5569 23.0584 28.5509 23.0581 28.545 23.0568C28.5392 23.0555 28.5337 23.0532 28.5289 23.05C28.5241 23.0469 28.52 23.0429 28.517 23.0383C28.514 23.0337 28.512 23.0286 28.5112 23.0233C28.5112 23.0233 28.5112 22.9948 28.4466 22.9948C28.4376 23.0077 28.4253 23.0185 28.4107 23.0264C28.3961 23.0344 28.3796 23.0392 28.3626 23.0405H28.1105C28.0658 23.032 28.0195 23.032 27.9748 23.0405C27.8591 23.0561 27.7461 23.0848 27.6387 23.126C27.5346 23.1652 27.4223 23.1847 27.3091 23.1831H27.2445L26.9666 23.2858C26.8718 23.3084 26.774 23.3199 26.6758 23.32H26.6112C26.6062 23.3363 26.5973 23.3513 26.585 23.3641C26.5727 23.377 26.5574 23.3872 26.5401 23.3942L26.4237 23.4342C26.3873 23.4295 26.3503 23.4295 26.3139 23.4342C26.2945 23.4381 26.2763 23.4458 26.2607 23.4567C26.2451 23.4675 26.2323 23.4812 26.2234 23.4969C26.2004 23.4864 26.1749 23.4809 26.1491 23.4809C26.1232 23.4809 26.0977 23.4864 26.0747 23.4969C26.0332 23.517 25.9863 23.5268 25.939 23.5255H25.8873C25.8579 23.5773 25.8103 23.6193 25.7516 23.6453L24.9761 23.9762C24.7177 24.0873 24.4766 24.2273 24.2587 24.3927C24.2205 24.4024 24.1868 24.4225 24.1624 24.4502C24.138 24.4779 24.1242 24.5117 24.123 24.5468C24.0885 24.5648 24.0579 24.5879 24.0325 24.6153L23.955 24.678C23.917 24.7007 23.8713 24.7108 23.8257 24.7066C23.8251 24.7489 23.8066 24.7896 23.774 24.8207C23.7502 24.8535 23.7347 24.8905 23.7288 24.9291C23.4119 25.048 23.1531 25.2623 22.9985 25.5339C22.8377 25.8007 22.7555 26.099 22.7593 26.4012C22.7606 26.6336 22.802 26.8645 22.8821 27.0859C22.9212 27.1146 22.9541 27.1494 22.9791 27.1886C23.0103 27.2267 23.0262 27.2728 23.0243 27.3198C23.0284 27.3444 23.0284 27.3694 23.0243 27.394C23.1436 27.4802 23.2539 27.5757 23.3539 27.6793C23.4533 27.788 23.5339 27.9092 23.593 28.0387L23.8386 28.1472C23.8782 28.1679 23.9113 28.197 23.935 28.2319C23.9587 28.2667 23.9722 28.3062 23.9743 28.3469H24.0713C24.106 28.3453 24.1407 28.3512 24.1722 28.3641C24.2037 28.377 24.2312 28.3966 24.2522 28.421L24.4203 28.558C24.5113 28.5735 24.5987 28.6024 24.6788 28.6436C24.7542 28.6782 24.8276 28.7163 24.8985 28.7577C24.9749 28.7976 25.0549 28.8319 25.1376 28.8604C25.2301 28.8941 25.3285 28.9134 25.4285 28.9174C25.4298 28.9355 25.4364 28.9529 25.4478 28.9679C25.4591 28.9829 25.4748 28.995 25.4931 29.003C25.5103 29.0067 25.526 29.0146 25.5386 29.0256C25.5511 29.0367 25.56 29.0506 25.5642 29.0658H25.5965C25.6092 29.0666 25.6219 29.0643 25.6332 29.0593C25.6446 29.0543 25.6542 29.0467 25.6611 29.0373C25.6781 29.0334 25.6959 29.0334 25.7128 29.0373C25.7384 29.0712 25.7714 29.1003 25.8098 29.1228L25.9519 29.1685L26.0941 29.2256C26.1354 29.2448 26.1692 29.2747 26.1911 29.3111C26.2835 29.3104 26.3753 29.3239 26.4625 29.3511C26.5508 29.3698 26.6372 29.3946 26.721 29.4253L26.9666 29.5108C27.054 29.5388 27.1453 29.5561 27.238 29.5622C27.3579 29.6643 27.5044 29.7387 27.6646 29.779C27.8391 29.8132 28.0006 29.8475 28.1622 29.8703C28.1698 29.8967 28.1835 29.9215 28.2024 29.9431C28.2213 29.9647 28.245 29.9826 28.2721 29.9958L28.4401 30.0586L28.6081 30.1271C28.6345 30.1363 28.6584 30.1501 28.6784 30.1678C28.6984 30.1854 28.7141 30.2065 28.7245 30.2298C28.9031 30.2541 29.0707 30.3212 29.2092 30.4238C29.3454 30.5299 29.4708 30.6464 29.584 30.7718V30.8061C29.587 30.8173 29.587 30.829 29.584 30.8403C29.5863 30.8681 29.5824 30.896 29.5724 30.9225C29.5624 30.9489 29.5466 30.9733 29.5259 30.9944C29.4848 31.029 29.4595 31.0756 29.4548 31.1256C29.1769 31.2682 28.9119 31.388 28.6663 31.4964C28.3943 31.6037 28.1037 31.6694 27.8068 31.6904C27.7331 31.7348 27.6526 31.7694 27.5676 31.7932L27.2897 31.8559C27.1959 31.8729 27.1009 31.8844 27.0054 31.8902H26.5207C26.4496 31.8837 26.38 31.8684 26.3139 31.8445V31.6962C26.308 31.6375 26.2928 31.5799 26.2686 31.525C26.2529 31.4697 26.2218 31.4187 26.1781 31.3766C26.1641 31.3563 26.1441 31.3397 26.1202 31.3286C26.0962 31.3176 26.0694 31.3125 26.0424 31.3139C25.9871 31.303 25.9297 31.303 25.8744 31.3139C25.8239 31.3353 25.7688 31.3469 25.7128 31.3481C25.6358 31.4119 25.5724 31.4872 25.5254 31.5706C25.4798 31.6584 25.4556 31.7537 25.4543 31.8502C25.4547 31.9801 25.4925 32.1077 25.5642 32.2211C25.6309 32.3352 25.7233 32.4362 25.8356 32.5178L26.3656 32.5692C26.541 32.5919 26.7182 32.6034 26.8955 32.6034C26.9902 32.6095 27.0852 32.6095 27.1799 32.6034L27.4642 32.5578H27.5224C27.5931 32.5486 27.665 32.5486 27.7357 32.5578C27.7578 32.538 27.7841 32.5225 27.8132 32.5121H28.0265C28.061 32.5085 28.093 32.4944 28.117 32.4722H28.1751C28.3672 32.4729 28.5571 32.4359 28.7309 32.3638L29.2609 32.1526L29.4225 32.0956C29.4749 32.089 29.5254 32.0735 29.5711 32.0499C29.6556 32.015 29.7306 31.9644 29.7908 31.9016C29.875 31.8388 29.9659 31.7834 30.0623 31.7361C30.0684 31.6656 30.0976 31.5982 30.1463 31.5421L30.2885 31.4052C30.3413 31.3604 30.391 31.3128 30.4371 31.2625C30.4888 31.2074 30.5203 31.1398 30.5276 31.0685C30.5417 31.0746 30.5571 31.0777 30.5728 31.0777C30.5885 31.0777 30.604 31.0746 30.6181 31.0685C30.6346 31.0461 30.6599 31.0298 30.6891 31.0229V30.9031C30.6914 30.8049 30.6694 30.7076 30.6245 30.6178C30.5766 30.4997 30.5441 30.3772 30.5276 30.2526ZM37.4298 29.7505C37.3362 29.7785 37.2378 29.792 37.139 29.7904C37.0586 29.7933 36.9793 29.7733 36.9128 29.7334C36.8314 29.766 36.7552 29.8083 36.6866 29.8589C36.6247 29.9126 36.5459 29.9485 36.4604 29.9616H36.0597L35.4781 30.0187C35.2852 30.0414 35.0909 30.0529 34.8964 30.0529C34.7365 30.0519 34.5768 30.0424 34.4182 30.0244C34.2627 30.0048 34.1092 29.9743 33.9593 29.9331C33.9016 29.9421 33.8425 29.9421 33.7848 29.9331C33.7112 29.9337 33.6385 29.92 33.5715 29.8931L33.3582 29.8075L33.1256 29.722C33.047 29.6962 32.9639 29.6827 32.88 29.682C32.854 29.6273 32.8115 29.58 32.7572 29.5451C32.7054 29.5057 32.6491 29.4713 32.5892 29.4424L32.4147 29.3397C32.3581 29.3038 32.3117 29.257 32.279 29.2027C32.2754 29.1896 32.2754 29.1759 32.279 29.1628V29.1228C32.1894 29.0912 32.1174 29.0297 32.0786 28.9517C32.043 28.8703 31.9952 28.7936 31.9365 28.7234C31.9291 28.6953 31.9291 28.666 31.9365 28.6379V28.5351C31.9302 28.442 31.9302 28.3487 31.9365 28.2556C31.9536 28.163 31.9644 28.0697 31.9688 27.976C32.0041 27.934 32.0365 27.8902 32.0657 27.8447C32.0977 27.7994 32.1196 27.749 32.1304 27.6964C32.1811 27.6807 32.2275 27.6554 32.2661 27.6222L32.3695 27.5138L32.4729 27.3997C32.5089 27.3629 32.5502 27.3303 32.5957 27.3027L32.8218 27.1886L33.1644 27.0174L33.5069 26.8691C33.5734 26.8363 33.6454 26.8132 33.7202 26.8006H33.9141C34.0269 26.7059 34.1727 26.6476 34.3277 26.6351C34.4869 26.619 34.6447 26.5923 34.7995 26.5552C34.856 26.5826 34.9171 26.6019 34.9804 26.6123C35.0466 26.6241 35.1116 26.6413 35.1743 26.6636C35.16 26.7821 35.1182 26.8967 35.0515 27.0003L35.2131 27.0459L35.3423 27.1087C35.3921 27.133 35.444 27.154 35.4974 27.1715C35.5659 27.1813 35.6357 27.1813 35.7042 27.1715C35.9013 27.179 36.0946 27.1221 36.2471 27.0117C36.3955 26.8932 36.4897 26.7308 36.5121 26.5552C36.4796 26.5178 36.4555 26.4752 36.441 26.4297L36.4022 26.3898C36.3845 26.3446 36.3629 26.3007 36.3376 26.2585C36.3128 26.216 36.28 26.1774 36.2406 26.1444C36.1693 26.1032 36.0867 26.0795 36.0015 26.0759C35.9138 26.0725 35.8307 26.0399 35.7689 25.9847H35.6461C35.5389 25.9829 35.4332 25.9615 35.3359 25.9219C35.2444 25.8783 35.1425 25.8548 35.0386 25.8534C34.9814 25.8517 34.9249 25.8657 34.877 25.8934H34.7477C34.6426 25.8918 34.5378 25.9053 34.4376 25.9333C34.3364 25.9577 34.2322 25.9711 34.1273 25.9732H34.0563C34.0098 26.0089 33.9545 26.0344 33.8947 26.0474L33.7267 26.0817H33.5522L33.3841 26.1102C33.3498 26.1233 33.3189 26.1428 33.2936 26.1672C33.2647 26.2084 33.2217 26.2404 33.1709 26.2585L32.977 26.327L32.796 26.3955C32.7534 26.4162 32.7077 26.4316 32.6603 26.4411C32.6175 26.4493 32.5761 26.4628 32.5375 26.4811C32.4871 26.5096 32.4414 26.5441 32.4017 26.5838C32.368 26.6209 32.3195 26.6454 32.2661 26.6522H32.1562C32.1519 26.6613 32.1497 26.671 32.1497 26.6808C32.1497 26.6906 32.1519 26.7003 32.1562 26.7093C32.1555 26.7194 32.1522 26.7293 32.1466 26.7382C32.141 26.7471 32.1332 26.7547 32.1239 26.7606C32.1097 26.7663 32.0942 26.7692 32.0786 26.7692C32.063 26.7692 32.0477 26.7663 32.0334 26.7606C32.0102 26.7545 31.9855 26.7545 31.9623 26.7606C31.9294 26.7783 31.9009 26.8016 31.8783 26.8291L31.8266 26.8976L31.6392 27.0231C31.5758 27.0566 31.519 27.099 31.4712 27.1486L31.413 27.1943L31.3484 27.2342C31.2866 27.3058 31.2326 27.3822 31.1868 27.4625C31.1332 27.5609 31.0858 27.6619 31.0446 27.7649C31.0098 27.868 30.9817 27.9727 30.9606 28.0787C30.937 28.1647 30.924 28.2527 30.9218 28.3412C30.9237 28.4432 30.9389 28.5446 30.967 28.6436C30.9903 28.744 31.0206 28.8431 31.0575 28.9403L31.1739 29.2313C31.214 29.3272 31.2422 29.4267 31.2579 29.528C31.3441 29.573 31.4188 29.6332 31.4776 29.7048C31.5456 29.7713 31.6082 29.8418 31.665 29.916C31.7385 29.9401 31.808 29.9727 31.8718 30.013L32.0399 30.1214L32.2209 30.2069C32.2979 30.2315 32.3783 30.2468 32.4599 30.2526C32.4827 30.2938 32.5218 30.3263 32.5698 30.3439L32.7185 30.4009L32.8865 30.4466L33.0286 30.5094C33.1944 30.5442 33.3629 30.5671 33.5327 30.5778H35.1226C35.3978 30.5801 35.6727 30.5591 35.9433 30.5151C36.2148 30.4751 36.4862 30.4409 36.7642 30.4124C36.7906 30.3814 36.8264 30.3576 36.8675 30.3439C36.9089 30.329 36.9524 30.3194 36.9968 30.3154H37.126C37.1694 30.3078 37.2096 30.29 37.2424 30.264C37.2545 30.2599 37.2652 30.253 37.2731 30.2439C37.2811 30.2349 37.2862 30.224 37.2876 30.2127C37.2968 30.1826 37.3146 30.1551 37.3393 30.1328C37.3739 30.1017 37.4131 30.0748 37.4556 30.0529C37.5022 30.0356 37.5457 30.0126 37.5849 29.9844C37.6293 29.9624 37.6686 29.9334 37.7012 29.8988C37.7352 29.8617 37.7535 29.8153 37.7529 29.7676H37.6947C37.6078 29.7506 37.5186 29.7448 37.4298 29.7505ZM52.7336 26.1844L52.5784 26.0132C52.5263 25.9525 52.4849 25.8852 52.4557 25.8135C52.3064 25.7599 52.1752 25.6735 52.0744 25.5624H51.9128C51.8067 25.5625 51.7015 25.5451 51.6026 25.5111C51.5039 25.4765 51.3986 25.4591 51.2924 25.4597H51.0985L50.8142 25.5225C50.7209 25.543 50.6316 25.5756 50.5492 25.6195C50.3807 25.6901 50.2186 25.7721 50.0645 25.8648C49.9097 25.9612 49.7369 26.0326 49.5539 26.0759C49.5291 26.1185 49.4963 26.1571 49.457 26.1901C49.4144 26.2191 49.3829 26.2589 49.3665 26.3042C49.1455 26.4065 48.943 26.5373 48.7655 26.6922C48.5947 26.8522 48.4015 26.9922 48.1903 27.1087C48.1998 27.1366 48.1998 27.1664 48.1903 27.1943C48.1903 27.1943 48.1515 27.2228 48.0998 27.2228C48.1083 27.2369 48.1128 27.2525 48.1128 27.2685C48.1128 27.2844 48.1083 27.3001 48.0998 27.3141C48.0962 27.3406 48.0962 27.3675 48.0998 27.394C47.8797 27.5919 47.6787 27.8057 47.4987 28.033C47.3206 28.2599 47.1793 28.5077 47.0787 28.7691C47.0865 28.8482 47.0754 28.9279 47.0464 29.003C47.0151 29.0708 46.9934 29.1417 46.9818 29.2141L47.1433 29.6592H46.775C46.4647 29.6592 46.1287 29.6592 45.8314 29.6991H45.5793C45.4987 29.7045 45.4186 29.716 45.3402 29.7334H45.1592C45.1244 29.7308 45.0919 29.7165 45.0688 29.6934C45.0419 29.6836 45.0117 29.6836 44.9848 29.6934C44.9443 29.7238 44.8951 29.7436 44.8426 29.7505L44.681 29.7904C44.4742 29.7904 44.2674 29.7904 44.0347 29.8304L43.3885 29.8988L42.7421 29.9616C42.5271 29.9767 42.311 29.9767 42.0959 29.9616H41.8503C41.8573 29.9445 41.8579 29.9259 41.8521 29.9084C41.8464 29.891 41.8344 29.8756 41.818 29.8646C41.7932 29.8359 41.7595 29.8141 41.7211 29.8018C41.7167 29.783 41.7167 29.7636 41.7211 29.7448C41.7115 29.7053 41.7115 29.6644 41.7211 29.625C41.7429 29.5832 41.7581 29.5391 41.7663 29.4937C42.1476 29.2313 42.5095 28.9631 42.8649 28.6835L43.9313 27.8333L44.1059 27.5423C44.1662 27.4443 44.2201 27.3434 44.2674 27.2399C44.3232 27.1365 44.3706 27.0297 44.4095 26.9204C44.4478 26.8151 44.4695 26.7057 44.4742 26.5952V26.4696C44.3376 26.3018 44.1793 26.1486 44.0024 26.0132C43.928 26.0281 43.8507 26.0281 43.7763 26.0132L43.5888 25.9333C43.4639 25.939 43.3388 25.939 43.214 25.9333C43.0922 25.9153 42.969 25.9058 42.8456 25.9048C42.6658 25.8932 42.4851 25.9047 42.3092 25.939C42.135 25.9711 41.9572 25.9864 41.7792 25.9847C41.6698 25.9733 41.5591 25.9733 41.4496 25.9847L41.1265 26.036L40.8098 26.0931C40.7025 26.1046 40.594 26.1046 40.4866 26.0931C40.4102 26.133 40.3303 26.1673 40.2475 26.1958C40.1664 26.2096 40.0831 26.2096 40.002 26.1958H39.8662C39.8217 26.249 39.7579 26.2873 39.6853 26.3042C39.6137 26.3216 39.5398 26.3312 39.4656 26.3327C39.3957 26.3292 39.3264 26.3197 39.2588 26.3042L39.0713 26.2414C38.9871 26.2701 38.9085 26.3106 38.8387 26.3612L38.6448 26.521C38.5768 26.5685 38.5056 26.6124 38.4316 26.6522C38.3537 26.6931 38.2632 26.7111 38.173 26.7036H38.102C38.0406 26.747 37.9733 26.7835 37.9015 26.812L37.6884 26.8976C37.6191 26.927 37.554 26.9633 37.4944 27.006C37.4298 27.0459 37.3766 27.0987 37.3393 27.16V27.3997C37.3328 27.4337 37.3328 27.4684 37.3393 27.5024C37.3296 27.5322 37.3296 27.5639 37.3393 27.5937C37.3613 27.592 37.3835 27.5941 37.4046 27.6C37.4257 27.6059 37.4452 27.6154 37.4621 27.6279C37.4953 27.6474 37.5257 27.6704 37.5526 27.6964L37.6495 27.7763C37.6946 27.8022 37.7451 27.8196 37.7982 27.8276L37.8887 27.7934L37.9985 27.7249L38.1084 27.6622C38.1276 27.649 38.1496 27.6393 38.173 27.6336H38.3928L38.4509 27.5823C38.4698 27.5605 38.4941 27.543 38.522 27.5309C38.5559 27.5232 38.5915 27.5232 38.6254 27.5309H38.6965C38.7002 27.567 38.7002 27.6033 38.6965 27.6393C38.6999 27.6754 38.6999 27.7117 38.6965 27.7477C38.7028 27.8199 38.7028 27.8924 38.6965 27.9646C38.6894 28.0424 38.6894 28.1207 38.6965 28.1985C38.678 28.2525 38.678 28.31 38.6965 28.364C38.6674 28.3941 38.6454 28.429 38.6319 28.4667C38.6275 28.5027 38.6275 28.5391 38.6319 28.5751C38.6155 28.6524 38.6155 28.7317 38.6319 28.809C38.6477 28.8883 38.6477 28.9694 38.6319 29.0487C38.6355 29.1019 38.6355 29.1552 38.6319 29.2084C38.6259 29.2616 38.6259 29.3151 38.6319 29.3682C38.6125 29.4644 38.6125 29.5629 38.6319 29.6592C38.6481 29.7537 38.6481 29.8499 38.6319 29.9445C38.6436 29.9953 38.6436 30.0477 38.6319 30.0985C38.7157 30.2294 38.7726 30.3724 38.7999 30.5208C38.8387 30.6862 38.8775 30.8346 38.9162 30.9715C38.9859 31.0159 39.047 31.0698 39.0972 31.1313C39.1517 31.1911 39.21 31.2483 39.2717 31.3025C39.3285 31.3594 39.3936 31.4093 39.4656 31.4508C39.5397 31.4914 39.6241 31.5149 39.7111 31.5193C39.7712 31.5268 39.8321 31.5268 39.8921 31.5193C39.9033 31.4258 39.934 31.3349 39.9826 31.2511C40.0329 31.1704 40.0616 31.0806 40.0666 30.9886C40.0732 30.9681 40.0732 30.9464 40.0666 30.9259C40.0632 30.9166 40.0632 30.9066 40.0666 30.8974C40.0687 30.8841 40.0687 30.8707 40.0666 30.8574C40.0666 30.8574 40.0666 30.8574 40.0343 30.8574H39.9697C39.8956 30.7505 39.8329 30.6378 39.7822 30.5208C39.6928 30.2771 39.6279 30.027 39.5884 29.7733C39.5689 29.6478 39.5366 29.5223 39.5108 29.4081C39.5565 29.2648 39.5847 29.1175 39.5948 28.9688V28.2327C39.6025 28.0773 39.6352 27.9236 39.6918 27.7763C39.6935 27.7554 39.6935 27.7344 39.6918 27.7135C39.6946 27.6908 39.6946 27.6678 39.6918 27.645C39.6984 27.6187 39.6984 27.5915 39.6918 27.5652C39.6856 27.5369 39.6856 27.5078 39.6918 27.4796C39.6883 27.4645 39.6883 27.449 39.6918 27.4339L40.1377 27.2456C40.2898 27.1784 40.459 27.147 40.6289 27.1543H40.7581C40.8657 27.0981 40.984 27.0594 41.1071 27.0402C41.2328 27.0167 41.3602 27.0014 41.4884 26.9946H41.8632C41.9908 26.9886 42.1169 26.9674 42.238 26.9318C42.3564 26.9403 42.4753 26.9403 42.5935 26.9318C42.83 26.9158 43.0677 26.9331 43.298 26.9832C43.4175 26.9994 43.5295 27.0448 43.6211 27.1144C43.5758 27.3054 43.4782 27.4837 43.3367 27.6336C43.1979 27.7877 43.0295 27.9191 42.8391 28.0216C42.8262 28.0567 42.8065 28.0895 42.7809 28.1186C42.754 28.1462 42.7237 28.1711 42.6905 28.1928L42.5935 28.2556C42.565 28.2772 42.5428 28.3046 42.5289 28.3354C42.425 28.3858 42.3257 28.443 42.2317 28.5066L41.9602 28.7006L41.6888 28.8889C41.6015 28.9519 41.5061 29.0056 41.4044 29.0487C41.314 29.1514 41.2235 29.2427 41.1265 29.3397C41.0295 29.4367 40.9197 29.5165 40.8098 29.5964C40.6999 29.6763 40.7711 29.819 40.7452 29.9217L40.6871 30.2526C40.7164 30.2638 40.7422 30.2811 40.7625 30.3029C40.7827 30.3247 40.7967 30.3505 40.8034 30.3781C40.8194 30.4357 40.8478 30.49 40.8874 30.5379C40.9479 30.6174 41.0302 30.6821 41.1265 30.7262C41.3437 30.8313 41.5798 30.9027 41.8244 30.9373C41.9283 30.9586 42.0345 30.97 42.1412 30.9715C42.281 30.9802 42.4214 30.9802 42.5613 30.9715C42.6773 30.8985 42.7798 30.81 42.8649 30.7091C42.8782 30.727 42.8964 30.7417 42.918 30.7517C42.9394 30.7617 42.9635 30.7667 42.9877 30.7661C43.0434 30.7649 43.0985 30.7747 43.1494 30.7946C43.2033 30.7614 43.2619 30.7345 43.3238 30.7148L43.5048 30.6862H43.6923C43.7563 30.6749 43.8175 30.6536 43.8731 30.6235C43.9219 30.6346 43.9731 30.6346 44.0218 30.6235C44.0734 30.618 44.1254 30.618 44.1769 30.6235C44.1956 30.6168 44.2164 30.6168 44.2351 30.6235H44.2868C44.453 30.5601 44.6263 30.5123 44.8038 30.4808C44.9977 30.4466 45.1916 30.4181 45.3855 30.4009C45.5793 30.3838 45.7797 30.3553 45.9736 30.3382C46.1621 30.3289 46.3498 30.3099 46.5358 30.2811C46.5808 30.2756 46.6265 30.2756 46.6715 30.2811C46.723 30.2866 46.7751 30.2866 46.8266 30.2811C46.9851 30.2656 47.141 30.235 47.2919 30.1898C47.3635 30.3113 47.4456 30.4276 47.5375 30.5379L47.8219 30.6577C47.9194 30.6891 48.0046 30.7446 48.0675 30.8175L48.3777 30.8688H48.94C49.023 30.8507 49.1033 30.8239 49.1791 30.7889C49.1999 30.8033 49.2238 30.8137 49.2494 30.8196C49.275 30.8255 49.3016 30.8267 49.3277 30.8232H49.4311C49.538 30.785 49.6483 30.7545 49.7607 30.7319C49.8716 30.7107 49.9839 30.6954 50.0968 30.6862C50.2375 30.5717 50.3992 30.4791 50.575 30.4124C50.7495 30.3439 50.9305 30.2868 51.1115 30.2298L51.4023 30.0072C51.5076 29.939 51.6229 29.8833 51.7448 29.8418C51.874 29.6877 52.0098 29.5337 52.1455 29.391C52.2813 29.238 52.3922 29.069 52.4751 28.8889C52.4651 28.8265 52.4651 28.7631 52.4751 28.7006C52.4846 28.6475 52.5019 28.5957 52.5268 28.5466L52.5979 28.3925C52.6302 28.3412 52.6561 28.2841 52.6884 28.2213C52.6886 28.026 52.7302 27.8325 52.8112 27.6507C52.8216 27.6124 52.8391 27.5758 52.8629 27.5423C52.8856 27.5064 52.9029 27.4681 52.9145 27.4282V26.9546C52.9115 26.9033 52.9115 26.8519 52.9145 26.8006C52.9203 26.7433 52.9426 26.6883 52.9792 26.6408C52.9669 26.5619 52.9362 26.4861 52.8887 26.4183C52.855 26.332 52.8023 26.2525 52.7336 26.1844ZM52.0227 27.2685V27.354C52.0219 27.4715 52.0044 27.5884 51.971 27.7021C51.9387 27.8105 51.8999 27.9132 51.8547 28.0216C51.8094 28.13 51.7577 28.2327 51.7125 28.3412C51.666 28.4473 51.6272 28.5559 51.5962 28.6664C51.5308 28.7252 51.4703 28.7881 51.4152 28.8547C51.3565 28.9181 51.3026 28.9848 51.2536 29.0544L51.1825 29.14C51.165 29.1738 51.1409 29.2046 51.1115 29.2313C51.0769 29.2657 51.038 29.2964 50.9951 29.3225C50.9516 29.3459 50.9105 29.3726 50.8723 29.4024C50.637 29.5526 50.386 29.6825 50.1226 29.7904C49.8616 29.8928 49.5885 29.9693 49.3084 30.0187C49.1828 29.9851 49.0515 29.9716 48.9206 29.9787C48.7946 29.9831 48.669 29.9636 48.5522 29.9217C48.4435 29.8943 48.3509 29.8309 48.2937 29.7448C48.247 29.6578 48.1836 29.5787 48.1063 29.5108C48.1031 29.4843 48.1031 29.4575 48.1063 29.431V29.3511C48.1018 29.1924 48.1281 29.0341 48.1838 28.8832C48.2423 28.7589 48.3114 28.6388 48.3906 28.5237C48.4682 28.4153 48.5587 28.3126 48.6427 28.2042C48.7457 28.0863 48.8324 27.9579 48.9012 27.8219C48.9824 27.767 49.0581 27.7059 49.1274 27.6393L49.3601 27.4396L49.5927 27.257C49.6731 27.1943 49.7622 27.1406 49.8577 27.0973C49.9013 27.0468 49.9593 27.0074 50.0257 26.9832C50.0874 26.9517 50.1387 26.9064 50.1743 26.8519H50.3294C50.3774 26.7991 50.434 26.7529 50.4975 26.715C50.5659 26.68 50.6372 26.6495 50.7107 26.6237L50.9305 26.5438C51.0002 26.5159 51.0636 26.4772 51.1179 26.4297C51.1431 26.438 51.1658 26.4509 51.1848 26.4677C51.2037 26.4844 51.2184 26.5045 51.2278 26.5267L51.2859 26.6522L51.3635 26.7036C51.3951 26.6948 51.4289 26.6948 51.4604 26.7036L51.5509 26.7435C51.5663 26.752 51.5791 26.7638 51.5882 26.7777C51.5972 26.7917 51.6021 26.8074 51.6026 26.8234C51.6431 26.8163 51.6849 26.8163 51.7254 26.8234C51.7884 26.8244 51.8503 26.838 51.9064 26.8633C51.9594 26.8901 52.0157 26.9111 52.0744 26.9261C52.0776 26.9488 52.0776 26.9718 52.0744 26.9946C52.0735 27.0624 52.0486 27.1282 52.0033 27.1829C52.013 27.2108 52.0195 27.2394 52.0227 27.2685ZM63.1451 29.1114C63.1491 29.0868 63.1491 29.0619 63.1451 29.0373H63.0869C63.0268 29.0314 62.9661 29.0314 62.906 29.0373H62.7315C62.6794 29.0375 62.6281 29.0257 62.5828 29.003C62.2605 29.1537 61.9281 29.287 61.5875 29.4024L60.5858 29.7619C60.5564 29.7486 60.5333 29.7263 60.5212 29.6991C60.516 29.6861 60.5064 29.6747 60.4937 29.6666C60.481 29.6584 60.4658 29.6539 60.4502 29.6535C60.4175 29.7034 60.3642 29.7402 60.3015 29.7562C60.2371 29.7618 60.1721 29.7618 60.1076 29.7562C60.0351 29.753 59.9634 29.7415 59.8943 29.722C59.8274 29.7112 59.7674 29.6786 59.7263 29.6307C59.6563 29.5079 59.6145 29.3741 59.6035 29.237V28.364C59.6544 28.3051 59.6898 28.2368 59.7069 28.1643C59.7209 28.1002 59.7295 28.0354 59.7328 27.9703C59.7387 27.8848 59.7387 27.799 59.7328 27.7135V27.4796C59.7824 27.4338 59.816 27.3763 59.8297 27.3141C59.836 27.2515 59.836 27.1885 59.8297 27.1258V26.7606C59.8266 26.715 59.8266 26.6693 59.8297 26.6237C59.8388 26.5785 59.8539 26.5344 59.8749 26.4925C59.7906 26.3518 59.7462 26.1952 59.7457 26.036V25.9333C59.6872 25.9074 59.6235 25.8918 59.5583 25.8877C59.5252 25.8809 59.4949 25.8661 59.4709 25.8449C59.4469 25.8237 59.4302 25.797 59.4225 25.7678C59.3714 25.7769 59.3186 25.7769 59.2674 25.7678C59.2311 25.7733 59.1939 25.7733 59.1576 25.7678L59.0477 25.7393V25.8192C58.8932 25.8773 58.7512 25.9584 58.6276 26.0588C58.5207 26.1719 58.4675 26.317 58.479 26.4639C58.5204 26.4955 58.5531 26.5351 58.5744 26.5796C58.5958 26.6242 58.6051 26.6724 58.6018 26.7207C58.6441 26.7277 58.6818 26.7487 58.7071 26.7795C58.7323 26.8103 58.7432 26.8485 58.7375 26.8862C58.7379 26.9666 58.7133 27.0455 58.6664 27.1144C58.6967 27.1934 58.7119 27.2763 58.7116 27.3598V27.6964C58.6346 27.8802 58.5846 28.0719 58.563 28.267C58.5509 28.4582 58.5271 28.6486 58.492 28.8376V29.0258C58.4885 29.0848 58.4885 29.1438 58.492 29.2027V29.4994L58.5307 29.6763C58.5276 29.7143 58.5276 29.7524 58.5307 29.7904C58.5549 29.8519 58.5897 29.9096 58.6341 29.9616C58.685 30.0083 58.7265 30.0623 58.7569 30.1214C58.8063 30.2278 58.8787 30.3247 58.9701 30.4067C59.069 30.4795 59.175 30.5444 59.2869 30.6007C59.3548 30.5863 59.4256 30.5863 59.4937 30.6007C59.5579 30.6093 59.6232 30.6093 59.6875 30.6007H59.7457V30.5664H60.1206C60.3295 30.5681 60.5344 30.5144 60.7086 30.4124H60.7474C60.7707 30.4068 60.7952 30.4068 60.8185 30.4124C60.8434 30.4212 60.8712 30.4212 60.8961 30.4124C60.99 30.3675 61.07 30.3028 61.1287 30.2241C61.2339 30.1924 61.3355 30.1523 61.4325 30.1042L61.7298 29.9559C61.8261 29.9058 61.9254 29.8601 62.0271 29.819C62.1322 29.7738 62.2427 29.7393 62.3566 29.7163L62.4084 29.6364L62.46 29.5907C62.4831 29.5842 62.508 29.5842 62.5312 29.5907H62.6475C62.6475 29.5337 62.7057 29.4823 62.7315 29.4367C62.7504 29.4134 62.7758 29.3948 62.8053 29.3828C62.8347 29.3708 62.8672 29.3658 62.8995 29.3682C62.8932 29.3419 62.8932 29.3147 62.8995 29.2883C62.8989 29.2662 62.9052 29.2444 62.9178 29.2253C62.9303 29.2061 62.9486 29.1904 62.9706 29.1799C63.004 29.184 63.0381 29.1797 63.069 29.1676C63.0997 29.1555 63.1261 29.1361 63.1451 29.1114ZM58.311 29.0316C58.253 29.0259 58.1945 29.0259 58.1364 29.0316C58.0763 29.0372 58.0156 29.0372 57.9555 29.0316C57.9034 29.0318 57.8522 29.02 57.8069 28.9973C57.4872 29.149 57.157 29.2824 56.8181 29.3967C56.482 29.5108 56.1459 29.6307 55.8099 29.7562C55.782 29.7427 55.7611 29.7202 55.7517 29.6934C55.7458 29.6808 55.736 29.6698 55.7234 29.6617C55.7109 29.6537 55.6961 29.6489 55.6806 29.6478C55.6437 29.6967 55.589 29.7329 55.5255 29.7505C55.461 29.7561 55.3961 29.7561 55.3316 29.7505C55.2591 29.7473 55.1875 29.7358 55.1184 29.7163C55.0597 29.7201 55.0011 29.7082 54.9504 29.682C54.8803 29.5593 54.8385 29.4254 54.8275 29.2883V28.4153C54.8806 28.3568 54.9181 28.2886 54.9374 28.2156C54.9588 28.131 54.9739 28.0452 54.9827 27.9589V27.4682C55.0323 27.4223 55.0659 27.3649 55.0795 27.3027C55.089 27.2402 55.089 27.1769 55.0795 27.1144V26.7492C55.0766 26.7036 55.0766 26.6579 55.0795 26.6123C55.0858 26.5665 55.101 26.5221 55.1248 26.4811C55.0356 26.3418 54.9889 26.1846 54.9891 26.0246V25.9219C54.931 25.8952 54.8671 25.8796 54.8017 25.8762C54.7695 25.8692 54.7402 25.8542 54.7173 25.833C54.6944 25.8117 54.6788 25.7852 54.6724 25.7564C54.6191 25.7655 54.5642 25.7655 54.5109 25.7564C54.4767 25.7619 54.4416 25.7619 54.4075 25.7564L54.2911 25.7279C54.2975 25.7404 54.3009 25.7541 54.3009 25.7678C54.3009 25.7816 54.2975 25.7952 54.2911 25.8078C54.1386 25.8659 53.9986 25.947 53.8775 26.0474C53.7706 26.1605 53.7174 26.3056 53.7289 26.4525C53.7689 26.4851 53.8006 26.5249 53.8217 26.5692C53.8429 26.6135 53.8531 26.6612 53.8517 26.7093C53.8928 26.7175 53.9289 26.7391 53.9529 26.7698C53.9768 26.8004 53.9868 26.8379 53.9809 26.8748C53.9843 26.9555 53.9595 27.0352 53.9098 27.103C53.9431 27.1813 53.9585 27.2647 53.955 27.3483V27.5252C53.949 27.5783 53.949 27.6319 53.955 27.685C53.872 27.8671 53.8217 28.0597 53.8064 28.2556C53.8064 28.4496 53.7676 28.6493 53.7354 28.8261L53.6966 29.0144V29.1913C53.6942 29.2293 53.6942 29.2674 53.6966 29.3054L53.7354 29.488C53.7317 29.5469 53.7317 29.606 53.7354 29.6649V29.779C53.7619 29.8407 53.7989 29.8984 53.8452 29.9502C53.8941 29.9983 53.9354 30.0521 53.968 30.11C54.0174 30.2164 54.0898 30.3133 54.1813 30.3952C54.279 30.4694 54.3851 30.5344 54.4979 30.5892C54.5638 30.575 54.6324 30.575 54.6983 30.5892C54.7625 30.5978 54.8279 30.5978 54.8922 30.5892H54.9567V30.555C54.9619 30.553 54.9673 30.5519 54.9729 30.5519C54.9786 30.5519 54.984 30.553 54.9891 30.555H55.3252C55.5363 30.5567 55.7431 30.5031 55.9197 30.4009C55.9428 30.3944 55.9677 30.3944 55.9909 30.4009C56.0158 30.4093 56.0434 30.4093 56.0684 30.4009H56.1007C56.1924 30.3554 56.27 30.2907 56.3269 30.2127C56.4341 30.181 56.538 30.1409 56.6371 30.0928L56.9279 29.9445C57.0265 29.8943 57.1279 29.8486 57.2317 29.8075C57.3345 29.7624 57.443 29.7279 57.5548 29.7048C57.5753 29.6799 57.5926 29.6531 57.6065 29.625L57.6646 29.5793C57.6856 29.5728 57.7084 29.5728 57.7293 29.5793H57.8456C57.8779 29.5223 57.9038 29.4709 57.9361 29.4253C57.954 29.4011 57.9793 29.3818 58.009 29.3697C58.0387 29.3576 58.0717 29.3531 58.1042 29.3568C58.0828 29.334 58.0693 29.3063 58.0654 29.2769C58.0647 29.2548 58.071 29.233 58.0836 29.2138C58.0962 29.1947 58.1144 29.179 58.1364 29.1685C58.1561 29.1795 58.1782 29.1868 58.2012 29.1899C58.2243 29.1929 58.2477 29.1918 58.2703 29.1864C58.2927 29.181 58.3137 29.1716 58.3318 29.1587C58.35 29.1458 58.3649 29.1297 58.3755 29.1114C58.3773 29.0867 58.3773 29.062 58.3755 29.0373L58.311 29.0316Z" fill="#EAE8E4"/>
</g>
<g clip-path="url(#clip1_8_2)">
<path d="M64.1399 80.4894C64.509 82.8299 63.3805 84.7424 62.6707 87C64.5459 86.0835 66.3638 85.0599 68.1148 83.9346" stroke="#EAE8E4" stroke-linecap="round" stroke-linejoin="round"/>
</g>
<defs>
<clipPath id="clip0_8_2">
<rect width="42" height="10" fill="white" transform="translate(22 23)"/>
</clipPath>
<clipPath id="clip1_8_2">
<rect width="8.17021" height="8" fill="white" transform="translate(61.2766 79)"/>
</clipPath>
</defs>
</svg>
